<svg xmlns="http://www.w3.org/2000/svg" viewBox="0 0 200 56.57"><defs><style>.cls-1{fill:#fff;}.cls-2{fill:#3e3a39;}</style></defs><g id="レイヤー_2" data-name="レイヤー 2"><g id="レイヤー_1-2" data-name="レイヤー 1"><path class="cls-1" d="M63.46,36.34a21.84,21.84,0,0,0,.86,2h-.86a15.78,15.78,0,0,0-.65-2l-2.25-6H51.9l-2.24,6a17.53,17.53,0,0,0-.65,2h-.87a19.52,19.52,0,0,0,.87-2l6-16.1a21.36,21.36,0,0,0,.71-2h1a21.25,21.25,0,0,0,.7,2Zm-3.14-6.58-4.09-10.9-4.11,10.9Z"/><path class="cls-1" d="M77.06,34.52a9.06,9.06,0,0,0,1.38,1.76A7.4,7.4,0,0,0,83.37,38c3.38,0,5.52-1.86,5.52-4.79,0-2.48-1.46-3.81-5.41-4.92-4.2-1.16-5.79-2.65-5.79-5.33,0-3,2.27-5,5.81-5a7.19,7.19,0,0,1,3.22.73A10.3,10.3,0,0,1,89,20.37l-.55.54a6.37,6.37,0,0,0-2-1.7,6.13,6.13,0,0,0-2.92-.68c-3.2,0-5.2,1.71-5.2,4.44,0,2.46,1.25,3.57,5.58,4.84C88,29,89.48,30.46,89.48,33.22c0,3.22-2.46,5.36-6.16,5.36A7.66,7.66,0,0,1,76.55,35Z"/><path class="cls-1" d="M105.63,18.21a17.14,17.14,0,0,0-.08,2v16.1a17.06,17.06,0,0,0,.08,2h-.78a17.06,17.06,0,0,0,.08-2V20.24a17.14,17.14,0,0,0-.08-2Zm9.91,18.13c.73.67,1.48,1.37,2.32,2h-1.24a23.69,23.69,0,0,0-2-2l-8.55-8,8.14-8.06a26.07,26.07,0,0,0,1.87-2h1.19a29.62,29.62,0,0,0-2.22,2l-8.14,8Z"/><path class="cls-1" d="M144.62,36.34a19.52,19.52,0,0,0,.87,2h-.87a15.78,15.78,0,0,0-.65-2l-2.25-6h-8.65l-2.25,6c-.24.67-.48,1.35-.65,2h-.86a21.84,21.84,0,0,0,.86-2l6-16.1a21.25,21.25,0,0,0,.7-2h1a21.36,21.36,0,0,0,.71,2Zm-3.14-6.58-4.08-10.9-4.12,10.9Z"/><path class="cls-1" d="M158.69,20.91a6.62,6.62,0,0,1,1.65-1.78,6.44,6.44,0,0,1,3.81-1.19c3.52,0,5.66,1.89,5.66,5,0,2.65-1.73,4.52-4.6,4.9v.08c3.33.16,5.41,2.14,5.41,5,0,3.49-2.52,5.73-6.49,5.73A7.25,7.25,0,0,1,159.26,37a7.11,7.11,0,0,1-1.49-1.62l.49-.43a6.34,6.34,0,0,0,5.87,3.11c3.68,0,5.87-1.92,5.87-5.17,0-2.84-2.22-4.68-6-4.68h-2l.13-.57h1.22c3.71,0,5.85-1.73,5.85-4.71,0-2.78-1.92-4.43-5.06-4.43a5.4,5.4,0,0,0-3.44,1.08,6.42,6.42,0,0,0-1.52,1.76Z"/><path class="cls-1" d="M190.37,18.21c6.17,0,9.63,3.52,9.63,9.82s-3.57,10.33-9.41,10.33h-4.44a18.42,18.42,0,0,0-2.09.09,18,18,0,0,0,.09-2V20.16a17.6,17.6,0,0,0-.09-2c.57.05,1.11.08,2.09.08Zm.22,19.59c5.46,0,8.79-3.68,8.79-9.77s-3.25-9.25-9-9.25h-5.57v19Z"/><polygon class="cls-1" points="0 0 0 26.05 9.81 21.77 15.53 25.87 15.53 16.67 5.97 11.15 15.53 7.48 25.09 11.15 23.25 20.35 21.26 21.77 31.07 26.05 31.07 0 0 0"/><polygon class="cls-1" points="0 30.6 0 56.57 31.07 56.57 31.07 30.6 15.53 42.34 0 30.6"/><path class="cls-2" d="M9.08,50.49a2.14,2.14,0,0,0,.1.22h-.1A.94.94,0,0,0,9,50.49l-.23-.64H7.85l-.23.64a.94.94,0,0,0-.07.22h-.1a2.14,2.14,0,0,0,.1-.22l.64-1.71a1.42,1.42,0,0,0,.07-.22h.11a1.42,1.42,0,0,0,.07.22Zm-.33-.7-.43-1.16-.44,1.16Z"/><path class="cls-2" d="M10.53,50.3a1.25,1.25,0,0,0,.15.19.77.77,0,0,0,.52.18c.36,0,.59-.2.59-.51s-.16-.4-.58-.52-.61-.28-.61-.57.24-.53.62-.53a.77.77,0,0,1,.34.08,1,1,0,0,1,.24.17l-.06.06a.6.6,0,0,0-.21-.18.68.68,0,0,0-.32-.07c-.34,0-.55.18-.55.47s.13.38.59.52.6.28.6.57a.58.58,0,0,1-.65.57.8.8,0,0,1-.56-.2.69.69,0,0,1-.16-.18Z"/><path class="cls-2" d="M13.57,48.56a1.7,1.7,0,0,0,0,.22v1.71a1.62,1.62,0,0,0,0,.22h-.08a1.62,1.62,0,0,0,0-.22V48.78a1.7,1.7,0,0,0,0-.22Zm1.06,1.93a2.61,2.61,0,0,0,.24.22h-.13a2.13,2.13,0,0,0-.21-.22l-.91-.85.86-.86a1.33,1.33,0,0,0,.2-.22h.13l-.24.22-.86.85Z"/><path class="cls-2" d="M17.72,50.49l.09.22h-.09a.94.94,0,0,0-.07-.22l-.24-.64h-.92l-.24.64-.07.22h-.09a1,1,0,0,0,.09-.22l.65-1.71c0-.07.05-.14.07-.22H17a1.43,1.43,0,0,0,.08.22Zm-.33-.7L17,48.63l-.44,1.16Z"/><path class="cls-2" d="M19.22,48.85a.61.61,0,0,1,.17-.19.71.71,0,0,1,.41-.12c.37,0,.6.2.6.53a.51.51,0,0,1-.49.52h0a.53.53,0,0,1,.58.53.61.61,0,0,1-.69.61.75.75,0,0,1-.52-.18.66.66,0,0,1-.16-.17l.05,0a.86.86,0,0,0,.15.17.71.71,0,0,0,.48.16c.39,0,.62-.21.62-.55s-.24-.5-.64-.5h-.21v-.06h.13c.4,0,.62-.19.62-.5s-.2-.47-.53-.47a.56.56,0,0,0-.37.11.58.58,0,0,0-.16.19Z"/><path class="cls-2" d="M22.59,48.56a.94.94,0,0,1,1,1,1,1,0,0,1-1,1.1h-.69c0-.06,0-.12,0-.22V48.77c0-.1,0-.15,0-.21h.67Zm0,2.09a.92.92,0,0,0,.94-1,.89.89,0,0,0-1-1H22v2Z"/></g></g></svg>